<svg width="634" height="317" viewBox="0 0 634 317" fill="none">
  <path d="M1.40242 301.057C0.987151 309.278 7.70158 316 16 316L618 316C626.299 316 633.013 309.278 632.598 301.057C630.777 265.006 622.79 229.493 608.946 196.072C593.066 157.733 569.789 122.898 540.446 93.5542C511.103 64.2109 476.267 40.9345 437.928 25.0541C399.589 9.17358 358.498 1 317 1C275.502 1 234.411 9.17358 196.072 25.0541C157.733 40.9346 122.898 64.211 93.5542 93.5543C64.2109 122.898 40.9345 157.733 25.0541 196.072C11.2105 229.493 3.22353 265.007 1.40242 301.057Z" stroke="#FAFAFA" stroke-width="2"/>
</svg>
