<svg width="64" height="64" viewBox="0 0 64 64" fill="none" xmlns="http://www.w3.org/2000/svg">
<path d="M49.6273 30.2306C49.6078 31.24 49.3594 32.1505 49.0961 33.058C48.5618 34.9013 47.7931 36.6582 46.9651 38.3926C46.5302 39.3036 46.3793 40.2722 46.3391 41.2593C46.3035 42.1419 46.3004 43.026 46.3015 43.9097C46.3015 44.9762 46.3556 46.0433 46.3278 47.1088C46.2984 48.23 46.1969 49.3497 46.133 50.4704C46.0985 51.0782 45.5899 51.3302 45.1376 51.3466C44.6223 51.3655 44.1911 51.0092 44.1184 50.4784C43.9922 49.5609 43.8933 48.6395 43.7861 47.7206C43.683 46.8419 43.5893 45.9627 43.4857 45.0866C43.4033 44.3908 43.3445 43.687 43.2101 42.9992C43.1529 42.7075 42.9663 42.4182 42.7721 42.1782C42.5222 41.8681 42.1538 41.8969 41.9802 42.2522C41.7705 42.6753 41.6126 43.1204 41.5098 43.5787C41.2455 44.8077 41.0177 46.0443 40.7926 47.2803C40.5829 48.4358 40.4139 49.5977 40.1918 50.7507C40.0279 51.6006 39.8311 52.4464 39.5972 53.2804C39.5349 53.5025 39.3174 53.7277 39.1077 53.8594C38.4894 54.243 37.5342 53.7938 37.4548 53.09C37.4203 52.7819 37.4548 52.4623 37.4878 52.1512C37.6754 50.4669 37.8753 48.7841 38.0664 47.0998C38.221 45.753 38.3756 44.4062 38.5075 43.0579C38.5291 42.8432 38.4786 42.6106 38.4127 42.4023C38.3096 42.0818 38.084 42.036 37.8346 42.2796C37.6889 42.4196 37.5628 42.5773 37.4595 42.7487C35.8543 45.4623 34.2535 48.1781 32.657 50.8963C32.4163 51.3059 32.1932 51.7253 31.9707 52.1443C31.6945 52.6641 31.3302 52.8584 30.6656 52.8122C30.1333 52.7754 29.8067 52.4892 29.6418 52.0091C29.5161 51.6448 29.4872 51.2964 29.6583 50.9272C30.6717 48.7677 31.6677 46.6034 32.6791 44.4415C33.2114 43.3049 33.7755 42.1822 34.2913 41.0391C34.4 40.7981 34.4139 40.4889 34.3773 40.223C34.3294 39.8751 34.0362 39.7499 33.7019 39.905C33.5007 39.9966 33.317 40.1204 33.1588 40.2712C30.9429 42.4272 28.7309 44.5874 26.5225 46.752C26.2696 47.0005 26.0212 47.2489 25.7667 47.4974C25.1087 48.1311 24.0808 47.811 23.7732 46.8896C23.6269 46.4513 23.7779 46.0944 24.0432 45.7595C24.7429 44.8803 25.455 44.0106 26.1557 43.1309C27.9961 40.8135 29.8814 38.5263 31.5209 36.0687C32.268 34.95 32.8971 33.7597 33.2392 32.4576C33.3247 32.1316 33.3196 31.7683 33.2789 31.4303C33.2222 30.9632 32.7528 30.6352 32.1494 30.5278C31.3663 30.3882 30.5965 30.5581 29.8206 30.5904C28.718 30.6367 27.6112 30.7654 26.5174 30.5333C25.9377 30.41 25.3885 30.1923 24.9284 29.8151C24.7771 29.6938 24.6476 29.5492 24.5451 29.3872C24.339 29.0508 24.4719 28.6969 24.8578 28.5717C25.1232 28.4857 25.4107 28.4042 25.6822 28.4151C26.4803 28.4464 27.2233 28.2561 27.9621 28.0016C29.1199 27.604 30.3023 27.2626 31.4369 26.8089C32.4066 26.4217 33.3072 25.875 34.2676 25.463C35.8375 24.7896 37.4105 24.1187 39.0217 23.5412C40.2809 23.0894 41.6056 23.0979 42.9174 23.4105C43.2781 23.4969 43.5671 23.6957 43.8232 23.9487C44.6445 24.7608 45.4683 25.5738 46.4761 26.1747C47.0573 26.5226 47.6612 26.8387 48.2717 27.1324C48.5835 27.2815 48.787 27.5036 48.9534 27.7785C49.4243 28.5508 49.6088 29.4021 49.6273 30.2306Z" fill="#FAFAFA"/>
<path d="M31.2452 12.2809C31.2364 12.9071 31.1679 13.5328 31.1246 14.1585C31.0559 15.1641 30.9859 16.1694 30.9144 17.1743C30.8629 17.9242 30.7975 18.6737 30.7671 19.4241C30.6984 21.1573 30.6407 22.8906 30.5939 24.6241C30.5883 24.8433 30.5105 24.9362 30.3209 24.9973C29.2595 25.3413 28.1888 25.6633 27.1408 26.041C26.5086 26.2696 25.8599 26.2895 25.2071 26.3526C24.2122 26.452 23.3095 26.7587 22.7263 27.6115C22.0477 28.6055 22.1312 29.8609 22.9128 30.8285C23.5017 31.5581 24.2952 31.9974 25.1695 32.3264C25.9112 32.6117 26.7047 32.7508 27.503 32.7354C28.5474 32.7111 29.5918 32.6649 30.6357 32.6286C30.7027 32.6286 30.7691 32.6286 30.8933 32.6286C30.7954 32.8463 30.713 33.0311 30.629 33.2155C30.0272 34.543 29.1863 35.7293 28.2955 36.8863C27.3253 38.1491 26.3376 39.401 25.3684 40.6634C25.2468 40.8209 25.1252 40.8691 24.9171 40.8482C23.9013 40.7491 22.8763 40.78 21.8689 40.9402C21.5658 40.9971 21.2518 40.9624 20.9698 40.8408C19.8157 40.3314 19.0279 39.4701 18.4704 38.4026C17.8939 37.2983 17.5208 36.1164 17.2338 34.9177C16.9123 33.5664 16.6635 32.1992 16.395 30.8364C16.1889 29.7958 15.7443 28.8485 15.1585 27.9708C14.231 26.5892 13.2377 25.2513 12.3185 23.8657C11.5564 22.7182 10.8537 21.5338 10.1426 20.3555C9.88861 19.9345 9.98393 19.53 10.3487 19.2154C10.7207 18.8933 11.1968 18.8407 11.5915 19.1309C11.8491 19.3188 12.0676 19.5588 12.2752 19.7984C13.5633 21.2824 14.8385 22.7773 16.1307 24.2573C16.4424 24.6161 16.7829 24.9508 17.1488 25.2583C17.3122 25.3954 17.561 25.4571 17.7815 25.5068C18.0907 25.5783 18.2968 25.4118 18.32 25.1007C18.3571 24.6062 18.1819 24.154 17.984 23.7141C17.0703 21.6838 16.1518 19.6556 15.2285 17.6295C14.8679 16.8343 14.5036 16.0431 14.1537 15.244C14.0612 15.0304 13.9921 14.808 13.9477 14.5805C13.8188 13.9255 14.0507 13.5646 14.737 13.3102C15.2847 13.1069 15.7159 13.2605 16.0447 13.8151C16.3734 14.3698 16.681 14.9483 16.9886 15.5203C18.1917 17.7567 19.3855 19.9981 20.5952 22.2296C20.7488 22.5056 20.9483 22.7555 21.1857 22.9691C21.4547 23.2117 21.6876 23.1307 21.7489 22.7778C21.7983 22.4514 21.8119 22.1209 21.7896 21.7918C21.7587 21.174 21.6932 20.5578 21.6505 19.9405C21.5593 18.614 21.4897 17.2861 21.3815 15.9611C21.2542 14.4055 21.0971 12.852 20.9492 11.2979C20.9347 11.1537 20.9523 11.0081 21.0008 10.871C21.0494 10.7339 21.1277 10.6083 21.2305 10.5027C21.4851 10.2269 21.8251 10.0862 22.1884 10.0057C22.2857 9.98435 22.4068 10.0271 22.5078 10.0639C23.0952 10.2756 23.4945 10.6573 23.6042 11.2691C23.8601 12.702 24.1109 14.1359 24.3565 15.5705C24.5719 16.8173 24.7834 18.0647 24.9913 19.3128C25.1154 20.0633 25.2066 20.8197 25.3488 21.5666C25.4112 21.8927 25.5086 22.2361 25.6884 22.5109C25.9738 22.9468 26.4355 22.9035 26.6297 22.4254C26.7905 22.0308 26.8657 21.6009 26.9512 21.183C27.2547 19.7 27.5453 18.2145 27.8431 16.7305C28.1522 15.1823 28.4727 13.6362 28.7772 12.0871C28.905 11.4346 29.2981 11.0966 29.9319 11.1354C30.6918 11.1796 31.2545 11.6483 31.2452 12.2809Z" fill="#FAFAFA"/>
<path d="M51.4296 32.7846C51.3049 33.1698 51.0174 33.303 50.7397 33.1131C50.5888 33.0098 50.477 32.8676 50.5542 32.6693C50.8484 31.9144 50.9 31.1242 50.9262 30.33C50.9582 29.3311 50.7026 28.3982 50.2358 27.5141C50.0854 27.2293 50.1379 27.0171 50.3904 26.8799C50.6114 26.7602 50.8397 26.8427 50.9958 27.123C51.3677 27.7768 51.6122 28.4908 51.7171 29.2297C51.882 30.4304 51.8063 31.6217 51.4296 32.7846Z" fill="#FAFAFA"/>
<path d="M53.402 33.1658C53.3613 33.2746 53.3071 33.3782 53.2407 33.4745C53.1299 33.631 52.9717 33.7065 52.777 33.6454C52.5822 33.5843 52.4642 33.4506 52.4776 33.1718C52.5518 32.978 52.6631 32.7285 52.743 32.47C53.216 30.9358 53.3293 29.4071 52.66 27.8903C52.6346 27.8375 52.6209 27.7801 52.6198 27.7219C52.6186 27.6636 52.63 27.6058 52.6533 27.552C52.6766 27.4983 52.7112 27.4498 52.7549 27.4096C52.7986 27.3695 52.8505 27.3385 52.9073 27.3188C53.1134 27.2368 53.3674 27.3386 53.4622 27.5921C53.6168 28.0101 53.7765 28.4335 53.8667 28.8674C54.1707 30.3424 53.9291 31.7708 53.402 33.1658Z" fill="#FAFAFA"/>
<path d="M20.2459 43.0628C20.2242 43.1424 20.1854 43.2168 20.1322 43.2811C20.079 43.3455 20.0124 43.3984 19.9368 43.4366C19.8208 43.4863 19.6276 43.4216 19.488 43.359C18.151 42.7507 17.1432 41.792 16.411 40.5684C16.1091 40.0645 15.871 39.5248 15.6304 38.9875C15.5212 38.7455 15.7618 38.4567 16.0225 38.4538C16.1239 38.4558 16.2219 38.4894 16.3019 38.5495C16.3819 38.6095 16.4397 38.6929 16.4667 38.7872C16.801 39.742 17.3632 40.567 18.0484 41.3154C18.5694 41.8783 19.2076 42.329 19.9213 42.6379C20.1125 42.7239 20.2851 42.862 20.2459 43.0628Z" fill="#FAFAFA"/>
<path d="M17.9598 44.2407C17.9011 44.4395 17.7475 44.5319 17.4662 44.522C17.3603 44.4781 17.257 44.4283 17.1571 44.3729C16.0462 43.7094 15.1791 42.8188 14.6051 41.6891C14.296 41.0853 14.0641 40.4467 13.8188 39.815C13.7096 39.5332 13.8472 39.2758 14.0883 39.2137C14.364 39.1431 14.567 39.2892 14.6592 39.6043C15.1677 41.3383 16.0828 42.793 17.7326 43.7372C17.9366 43.8565 18.0247 44.024 17.9598 44.2407Z" fill="#FAFAFA"/>
<rect x="1" y="1" width="62" height="62" rx="31" stroke="#FAFAFA" stroke-width="2"/>
<path d="M49.6273 30.2306C49.6077 31.24 49.3594 32.1505 49.0961 33.058C48.5618 34.9013 47.7931 36.6582 46.9651 38.3926C46.5302 39.3036 46.3793 40.2722 46.3391 41.2593C46.3035 42.1419 46.3004 43.026 46.3015 43.9097C46.3015 44.9762 46.3556 46.0433 46.3278 47.1088C46.2984 48.23 46.1969 49.3497 46.133 50.4704C46.0985 51.0782 45.5899 51.3302 45.1376 51.3466C44.6223 51.3655 44.1911 51.0092 44.1184 50.4784C43.9922 49.5609 43.8933 48.6395 43.7861 47.7206C43.683 46.8419 43.5893 45.9627 43.4857 45.0866C43.4033 44.3908 43.3445 43.687 43.2101 42.9992C43.1529 42.7075 42.9663 42.4182 42.7721 42.1782C42.5222 41.8681 42.1538 41.8969 41.9802 42.2522C41.7705 42.6753 41.6126 43.1204 41.5098 43.5787C41.2455 44.8077 41.0177 46.0442 40.7926 47.2803C40.5829 48.4357 40.4139 49.5977 40.1918 50.7507C40.0279 51.6006 39.8311 52.4464 39.5972 53.2804C39.5349 53.5025 39.3174 53.7277 39.1077 53.8594C38.4894 54.243 37.5342 53.7938 37.4548 53.09C37.4203 52.7819 37.4548 52.4623 37.4878 52.1512C37.6754 50.4669 37.8753 48.7841 38.0664 47.0998C38.221 45.753 38.3756 44.4062 38.5075 43.0579C38.5291 42.8432 38.4786 42.6106 38.4127 42.4023C38.3096 42.0818 38.084 42.036 37.8346 42.2796C37.6889 42.4196 37.5628 42.5773 37.4595 42.7487C35.8543 45.4623 34.2535 48.1781 32.657 50.8963C32.4163 51.3059 32.1932 51.7253 31.9707 52.1443C31.6945 52.6641 31.3302 52.8584 30.6656 52.8122C30.1333 52.7754 29.8067 52.4892 29.6418 52.0091C29.5161 51.6448 29.4872 51.2964 29.6583 50.9271C30.6717 48.7677 31.6677 46.6034 32.6791 44.4415C33.2114 43.3049 33.7755 42.1822 34.2913 41.0391C34.4 40.7981 34.4139 40.4889 34.3773 40.223C34.3294 39.8751 34.0362 39.7499 33.7019 39.905C33.5007 39.9966 33.317 40.1204 33.1588 40.2712C30.9429 42.4272 28.7309 44.5874 26.5225 46.752C26.2696 47.0005 26.0212 47.2489 25.7667 47.4974C25.1087 48.1311 24.0808 47.811 23.7732 46.8896C23.6269 46.4513 23.7779 46.0944 24.0432 45.7595C24.7429 44.8803 25.455 44.0106 26.1557 43.1309C27.9961 40.8135 29.8814 38.5263 31.5209 36.0687C32.2679 34.95 32.8971 33.7597 33.2392 32.4576C33.3247 32.1316 33.3196 31.7683 33.2789 31.4303C33.2222 30.9632 32.7528 30.6352 32.1494 30.5278C31.3663 30.3882 30.5965 30.5581 29.8206 30.5904C28.718 30.6367 27.6112 30.7654 26.5174 30.5333C25.9377 30.41 25.3885 30.1923 24.9284 29.8151C24.7771 29.6938 24.6476 29.5492 24.5451 29.3872C24.339 29.0508 24.4719 28.6969 24.8578 28.5717C25.1232 28.4857 25.4107 28.4042 25.6822 28.4151C26.4803 28.4464 27.2233 28.2561 27.9621 28.0016C29.1199 27.604 30.3023 27.2626 31.4369 26.8089C32.4066 26.4217 33.3072 25.875 34.2676 25.463C35.8375 24.7896 37.4105 24.1187 39.0217 23.5412C40.2809 23.0894 41.6056 23.0979 42.9174 23.4105C43.2781 23.4969 43.5671 23.6957 43.8232 23.9487C44.6445 24.7608 45.4683 25.5738 46.4761 26.1747C47.0573 26.5226 47.6612 26.8387 48.2717 27.1324C48.5835 27.2815 48.787 27.5036 48.9534 27.7785C49.4243 28.5508 49.6088 29.4021 49.6273 30.2306Z" fill="#FAFAFA"/>
<path d="M31.2452 12.2809C31.2364 12.9071 31.1679 13.5328 31.1246 14.1585C31.0559 15.1641 30.9859 16.1694 30.9144 17.1743C30.8629 17.9242 30.7975 18.6737 30.7671 19.4241C30.6984 21.1573 30.6407 22.8906 30.5939 24.6241C30.5883 24.8433 30.5105 24.9362 30.3209 24.9973C29.2595 25.3413 28.1888 25.6633 27.1408 26.041C26.5086 26.2696 25.8599 26.2895 25.2071 26.3526C24.2122 26.452 23.3095 26.7587 22.7263 27.6115C22.0477 28.6055 22.1312 29.8609 22.9128 30.8285C23.5017 31.5581 24.2952 31.9974 25.1695 32.3264C25.9112 32.6117 26.7047 32.7508 27.503 32.7354C28.5474 32.7111 29.5918 32.6649 30.6357 32.6286C30.7027 32.6286 30.7691 32.6286 30.8933 32.6286C30.7954 32.8463 30.713 33.0311 30.629 33.2155C30.0272 34.543 29.1863 35.7293 28.2955 36.8863C27.3253 38.1491 26.3376 39.401 25.3684 40.6634C25.2468 40.8209 25.1252 40.8691 24.9171 40.8482C23.9013 40.7491 22.8763 40.78 21.8689 40.9402C21.5658 40.9971 21.2518 40.9624 20.9698 40.8408C19.8157 40.3314 19.0279 39.4701 18.4704 38.4026C17.8939 37.2983 17.5208 36.1164 17.2338 34.9177C16.9123 33.5664 16.6635 32.1992 16.395 30.8364C16.1889 29.7958 15.7443 28.8485 15.1585 27.9708C14.231 26.5892 13.2377 25.2513 12.3185 23.8657C11.5564 22.7182 10.8537 21.5338 10.1426 20.3555C9.88861 19.9345 9.98393 19.53 10.3487 19.2154C10.7207 18.8933 11.1968 18.8407 11.5915 19.1309C11.8491 19.3188 12.0676 19.5588 12.2752 19.7984C13.5633 21.2824 14.8385 22.7773 16.1307 24.2573C16.4424 24.6161 16.7829 24.9508 17.1488 25.2583C17.3122 25.3954 17.561 25.4571 17.7815 25.5068C18.0907 25.5783 18.2968 25.4118 18.32 25.1007C18.3571 24.6062 18.1819 24.154 17.984 23.7141C17.0703 21.6838 16.1518 19.6556 15.2285 17.6295C14.8679 16.8343 14.5036 16.0431 14.1537 15.244C14.0612 15.0304 13.9921 14.808 13.9477 14.5805C13.8188 13.9255 14.0507 13.5646 14.737 13.3102C15.2847 13.1069 15.7159 13.2605 16.0447 13.8151C16.3734 14.3698 16.681 14.9483 16.9886 15.5203C18.1917 17.7567 19.3855 19.9981 20.5952 22.2296C20.7488 22.5056 20.9483 22.7555 21.1857 22.9691C21.4547 23.2117 21.6876 23.1307 21.7489 22.7778C21.7983 22.4514 21.8119 22.1209 21.7896 21.7918C21.7586 21.174 21.6932 20.5578 21.6505 19.9405C21.5593 18.614 21.4897 17.2861 21.3815 15.9611C21.2542 14.4055 21.0971 12.852 20.9492 11.2979C20.9347 11.1537 20.9523 11.0081 21.0008 10.871C21.0494 10.7339 21.1277 10.6083 21.2305 10.5027C21.4851 10.2269 21.8251 10.0862 22.1884 10.0057C22.2857 9.98435 22.4068 10.0271 22.5078 10.0639C23.0952 10.2756 23.4945 10.6573 23.6042 11.2691C23.8601 12.702 24.1109 14.1359 24.3565 15.5705C24.5718 16.8173 24.7834 18.0647 24.9913 19.3128C25.1154 20.0633 25.2066 20.8197 25.3488 21.5666C25.4112 21.8927 25.5086 22.2361 25.6884 22.5109C25.9738 22.9468 26.4355 22.9035 26.6297 22.4254C26.7905 22.0308 26.8657 21.6009 26.9512 21.183C27.2547 19.7 27.5453 18.2145 27.8431 16.7305C28.1522 15.1823 28.4727 13.6362 28.7772 12.0871C28.905 11.4346 29.2981 11.0966 29.9319 11.1354C30.6918 11.1796 31.2545 11.6483 31.2452 12.2809Z" fill="#FAFAFA"/>
<path d="M51.4296 32.7846C51.3049 33.1698 51.0174 33.303 50.7397 33.1131C50.5888 33.0098 50.477 32.8676 50.5542 32.6693C50.8484 31.9144 50.9 31.1242 50.9262 30.33C50.9582 29.3311 50.7026 28.3982 50.2358 27.5141C50.0854 27.2293 50.1379 27.0171 50.3904 26.8799C50.6114 26.7602 50.8397 26.8427 50.9958 27.123C51.3677 27.7768 51.6122 28.4908 51.7171 29.2297C51.882 30.4304 51.8063 31.6217 51.4296 32.7846Z" fill="#FAFAFA"/>
<path d="M53.402 33.1658C53.3613 33.2746 53.3071 33.3782 53.2407 33.4745C53.1299 33.631 52.9717 33.7065 52.777 33.6454C52.5822 33.5843 52.4642 33.4506 52.4776 33.1718C52.5518 32.978 52.6631 32.7285 52.743 32.47C53.216 30.9358 53.3293 29.4071 52.66 27.8903C52.6346 27.8375 52.6209 27.7801 52.6198 27.7219C52.6186 27.6636 52.63 27.6058 52.6533 27.552C52.6766 27.4983 52.7111 27.4498 52.7549 27.4096C52.7986 27.3695 52.8505 27.3385 52.9073 27.3188C53.1134 27.2368 53.3674 27.3386 53.4622 27.5921C53.6168 28.0101 53.7765 28.4335 53.8667 28.8674C54.1707 30.3424 53.929 31.7708 53.402 33.1658Z" fill="#FAFAFA"/>
<path d="M20.2459 43.0628C20.2242 43.1424 20.1854 43.2168 20.1322 43.2811C20.079 43.3455 20.0124 43.3984 19.9368 43.4366C19.8208 43.4863 19.6276 43.4216 19.488 43.359C18.151 42.7507 17.1432 41.792 16.411 40.5684C16.1091 40.0645 15.871 39.5248 15.6304 38.9875C15.5212 38.7455 15.7618 38.4567 16.0225 38.4538C16.1239 38.4558 16.2219 38.4894 16.3019 38.5495C16.3819 38.6095 16.4397 38.6929 16.4667 38.7872C16.801 39.742 17.3632 40.567 18.0484 41.3154C18.5694 41.8783 19.2076 42.329 19.9213 42.6379C20.1125 42.7239 20.2851 42.862 20.2459 43.0628Z" fill="#FAFAFA"/>
<path d="M17.9598 44.2407C17.9011 44.4395 17.7475 44.5319 17.4662 44.522C17.3603 44.4781 17.257 44.4283 17.1571 44.3729C16.0462 43.7094 15.1791 42.8188 14.6051 41.6891C14.296 41.0853 14.0641 40.4467 13.8188 39.815C13.7096 39.5332 13.8472 39.2758 14.0883 39.2137C14.364 39.1431 14.567 39.2892 14.6592 39.6043C15.1677 41.3383 16.0828 42.793 17.7326 43.7372C17.9366 43.8565 18.0247 44.024 17.9598 44.2407Z" fill="#FAFAFA"/>
</svg>
