<svg width="44" height="44" viewBox="0 0 44 44" fill="none" xmlns="http://www.w3.org/2000/svg">
<path d="M39.6273 20.2306C39.6077 21.24 39.3594 22.1505 39.0961 23.058C38.5618 24.9013 37.7931 26.6582 36.9651 28.3926C36.5302 29.3036 36.3793 30.2722 36.3391 31.2593C36.3035 32.1419 36.3004 33.026 36.3015 33.9097C36.3015 34.9762 36.3556 36.0433 36.3278 37.1088C36.2984 38.23 36.1969 39.3497 36.133 40.4704C36.0985 41.0782 35.5899 41.3302 35.1376 41.3466C34.6223 41.3655 34.1911 41.0092 34.1184 40.4784C33.9922 39.5609 33.8933 38.6395 33.7861 37.7206C33.683 36.8419 33.5893 35.9627 33.4857 35.0866C33.4033 34.3908 33.3445 33.687 33.2101 32.9992C33.1529 32.7075 32.9663 32.4182 32.7721 32.1782C32.5222 31.8681 32.1538 31.8969 31.9802 32.2522C31.7705 32.6753 31.6126 33.1204 31.5098 33.5787C31.2455 34.8077 31.0177 36.0442 30.7926 37.2803C30.5829 38.4357 30.4139 39.5977 30.1918 40.7507C30.0279 41.6006 29.8311 42.4464 29.5972 43.2804C29.5349 43.5025 29.3174 43.7277 29.1077 43.8594C28.4894 44.243 27.5342 43.7938 27.4548 43.09C27.4203 42.7819 27.4548 42.4623 27.4878 42.1512C27.6754 40.4669 27.8753 38.7841 28.0664 37.0998C28.221 35.753 28.3756 34.4062 28.5075 33.0579C28.5291 32.8432 28.4786 32.6106 28.4127 32.4023C28.3096 32.0818 28.084 32.036 27.8346 32.2796C27.6889 32.4196 27.5628 32.5773 27.4595 32.7487C25.8543 35.4623 24.2535 38.1781 22.657 40.8963C22.4163 41.3059 22.1932 41.7253 21.9707 42.1443C21.6945 42.6641 21.3302 42.8584 20.6656 42.8122C20.1333 42.7754 19.8067 42.4892 19.6418 42.0091C19.5161 41.6448 19.4872 41.2964 19.6583 40.9271C20.6717 38.7677 21.6677 36.6034 22.6791 34.4415C23.2114 33.3049 23.7755 32.1822 24.2913 31.0391C24.4 30.7981 24.4139 30.4889 24.3773 30.223C24.3294 29.8751 24.0362 29.7499 23.7019 29.905C23.5007 29.9966 23.317 30.1204 23.1588 30.2712C20.9429 32.4272 18.7309 34.5874 16.5225 36.752C16.2696 37.0005 16.0212 37.2489 15.7667 37.4974C15.1087 38.1311 14.0808 37.811 13.7732 36.8896C13.6269 36.4513 13.7779 36.0944 14.0432 35.7595C14.7429 34.8803 15.455 34.0106 16.1557 33.1309C17.9961 30.8135 19.8814 28.5263 21.5209 26.0687C22.2679 24.95 22.8971 23.7597 23.2392 22.4576C23.3247 22.1316 23.3196 21.7683 23.2789 21.4303C23.2222 20.9632 22.7528 20.6352 22.1494 20.5278C21.3663 20.3882 20.5965 20.5581 19.8206 20.5904C18.718 20.6367 17.6112 20.7654 16.5174 20.5333C15.9377 20.41 15.3885 20.1923 14.9284 19.8151C14.7771 19.6938 14.6476 19.5492 14.5451 19.3872C14.339 19.0508 14.4719 18.6969 14.8578 18.5717C15.1232 18.4857 15.4107 18.4042 15.6822 18.4151C16.4803 18.4464 17.2233 18.2561 17.9621 18.0016C19.1199 17.604 20.3023 17.2626 21.4369 16.8089C22.4066 16.4217 23.3072 15.875 24.2676 15.463C25.8375 14.7896 27.4105 14.1187 29.0217 13.5412C30.2809 13.0894 31.6056 13.0979 32.9174 13.4105C33.2781 13.4969 33.5671 13.6957 33.8232 13.9487C34.6445 14.7608 35.4683 15.5738 36.4761 16.1747C37.0573 16.5226 37.6612 16.8387 38.2717 17.1324C38.5835 17.2815 38.787 17.5036 38.9534 17.7785C39.4243 18.5508 39.6088 19.4021 39.6273 20.2306Z" fill="#0D0D0D"/>
<path d="M21.2452 2.28093C21.2364 2.90713 21.1679 3.53284 21.1246 4.15855C21.0559 5.16412 20.9859 6.16936 20.9144 7.17426C20.8629 7.92422 20.7975 8.67368 20.7671 9.42413C20.6984 11.1573 20.6407 12.8906 20.5939 14.6241C20.5883 14.8433 20.5105 14.9362 20.3209 14.9973C19.2595 15.3413 18.1888 15.6633 17.1408 16.041C16.5086 16.2696 15.8599 16.2895 15.2071 16.3526C14.2122 16.452 13.3095 16.7587 12.7263 17.6115C12.0477 18.6055 12.1312 19.8609 12.9128 20.8285C13.5017 21.5581 14.2952 21.9974 15.1695 22.3264C15.9112 22.6117 16.7047 22.7508 17.503 22.7354C18.5474 22.7111 19.5918 22.6649 20.6357 22.6286C20.7027 22.6286 20.7691 22.6286 20.8933 22.6286C20.7954 22.8463 20.713 23.0311 20.629 23.2155C20.0272 24.543 19.1863 25.7293 18.2955 26.8863C17.3253 28.1491 16.3376 29.401 15.3684 30.6634C15.2468 30.8209 15.1252 30.8691 14.9171 30.8482C13.9013 30.7491 12.8763 30.78 11.8689 30.9402C11.5658 30.9971 11.2518 30.9624 10.9698 30.8408C9.81569 30.3314 9.02789 29.4701 8.47041 28.4026C7.89386 27.2983 7.52083 26.1164 7.23384 24.9177C6.91233 23.5664 6.66347 22.1992 6.39503 20.8364C6.18894 19.7958 5.74429 18.8485 5.15846 17.9708C4.23103 16.5892 3.23766 15.2513 2.31847 13.8657C1.55644 12.7182 0.853653 11.5338 0.142626 10.3555C-0.111386 9.93453 -0.0160674 9.52998 0.348721 9.21539C0.720722 8.89334 1.1968 8.84066 1.59147 9.1309C1.84909 9.31876 2.06755 9.55881 2.27519 9.79836C3.56329 11.2824 4.8385 12.7773 6.13071 14.2573C6.44245 14.6161 6.78286 14.9508 7.14882 15.2583C7.31215 15.3954 7.56102 15.4571 7.78154 15.5068C8.09068 15.5783 8.29677 15.4118 8.31996 15.1007C8.35705 14.6062 8.18187 14.154 7.98402 13.7141C7.07033 11.6838 6.15184 9.65556 5.22853 7.6295C4.86787 6.83432 4.50359 6.04312 4.15375 5.24397C4.06115 5.03038 3.99207 4.808 3.94765 4.58049C3.81884 3.92546 4.0507 3.56465 4.73699 3.31019C5.28469 3.10692 5.71594 3.26049 6.04467 3.81513C6.37339 4.36977 6.68099 4.94826 6.98858 5.52029C8.19166 7.75673 9.38547 9.99815 10.5952 12.2296C10.7488 12.5056 10.9483 12.7555 11.1857 12.9691C11.4547 13.2117 11.6876 13.1307 11.7489 12.7778C11.7983 12.4514 11.8119 12.1209 11.7896 11.7918C11.7586 11.174 11.6932 10.5578 11.6505 9.94049C11.5593 8.61404 11.4897 7.28609 11.3815 5.96112C11.2542 4.40555 11.0971 2.85197 10.9492 1.29789C10.9347 1.15367 10.9523 1.00812 11.0008 0.870992C11.0494 0.73386 11.1277 0.6083 11.2305 0.502709C11.4851 0.226881 11.8251 0.0862336 12.1884 0.0057217C12.2857 -0.0156488 12.4068 0.0270921 12.5078 0.0638691C13.0952 0.275586 13.4945 0.657272 13.6042 1.26906C13.8601 2.70204 14.1109 4.13585 14.3565 5.57049C14.5718 6.81726 14.7834 8.0647 14.9913 9.3128C15.1154 10.0633 15.2066 10.8197 15.3488 11.5666C15.4112 11.8927 15.5086 12.2361 15.6884 12.5109C15.9738 12.9468 16.4355 12.9035 16.6297 12.4254C16.7905 12.0308 16.8657 11.6009 16.9512 11.183C17.2547 9.69995 17.5453 8.21446 17.8431 6.73046C18.1522 5.18234 18.4727 3.63621 18.7772 2.0871C18.905 1.43456 19.2981 1.09661 19.9319 1.13537C20.6918 1.17961 21.2545 1.64826 21.2452 2.28093Z" fill="#0D0D0D"/>
<path d="M41.4296 22.7846C41.3049 23.1698 41.0174 23.303 40.7397 23.1131C40.5888 23.0098 40.477 22.8676 40.5542 22.6693C40.8484 21.9144 40.9 21.1242 40.9262 20.33C40.9582 19.3311 40.7026 18.3982 40.2358 17.5141C40.0854 17.2293 40.1379 17.0171 40.3904 16.8799C40.6114 16.7602 40.8397 16.8427 40.9958 17.123C41.3677 17.7768 41.6122 18.4908 41.7171 19.2297C41.882 20.4304 41.8063 21.6217 41.4296 22.7846Z" fill="#0D0D0D"/>
<path d="M43.402 23.1658C43.3613 23.2746 43.3071 23.3782 43.2407 23.4745C43.1299 23.631 42.9717 23.7065 42.777 23.6454C42.5822 23.5843 42.4642 23.4506 42.4776 23.1718C42.5518 22.978 42.6631 22.7285 42.743 22.47C43.216 20.9358 43.3293 19.4071 42.66 17.8903C42.6346 17.8375 42.6209 17.7801 42.6198 17.7219C42.6186 17.6636 42.63 17.6058 42.6533 17.552C42.6766 17.4983 42.7111 17.4498 42.7549 17.4096C42.7986 17.3695 42.8505 17.3385 42.9073 17.3188C43.1134 17.2368 43.3674 17.3386 43.4622 17.5921C43.6168 18.0101 43.7765 18.4335 43.8667 18.8674C44.1707 20.3424 43.929 21.7708 43.402 23.1658Z" fill="#0D0D0D"/>
<path d="M10.2459 33.0628C10.2242 33.1424 10.1854 33.2168 10.1322 33.2811C10.079 33.3455 10.0124 33.3984 9.93678 33.4366C9.82085 33.4863 9.62764 33.4216 9.48801 33.359C8.15096 32.7507 7.14316 31.792 6.41101 30.5684C6.10908 30.0645 5.87104 29.5248 5.63042 28.9875C5.52119 28.7455 5.76181 28.4567 6.02252 28.4538C6.1239 28.4558 6.2219 28.4894 6.30192 28.5495C6.38194 28.6095 6.43971 28.6929 6.46665 28.7872C6.80104 29.742 7.36316 30.567 8.04843 31.3154C8.56941 31.8783 9.20759 32.329 9.92132 32.6379C10.1125 32.7239 10.2851 32.862 10.2459 33.0628Z" fill="#0D0D0D"/>
<path d="M7.95981 34.2407C7.90107 34.4395 7.74753 34.5319 7.46621 34.522C7.36027 34.4781 7.25705 34.4283 7.15707 34.3729C6.04622 33.7094 5.17907 32.8188 4.6051 31.6891C4.29596 31.0853 4.0641 30.4467 3.81885 29.815C3.70962 29.5332 3.84718 29.2758 4.08831 29.2137C4.36397 29.1431 4.56697 29.2892 4.6592 29.6043C5.16774 31.3383 6.0828 32.793 7.73259 33.7372C7.93662 33.8565 8.02473 34.024 7.95981 34.2407Z" fill="#0D0D0D"/>
</svg>
