<svg width="24" height="24" viewBox="0 0 24 24" fill="none" xmlns="http://www.w3.org/2000/svg">
<path fill-rule="evenodd" clip-rule="evenodd" d="M24 12C24 18.6274 18.6274 24 12 24C5.37258 24 0 18.6274 0 12C0 5.37258 5.37258 0 12 0C18.6274 0 24 5.37258 24 12ZM18.032 10.0986C18.032 13.9212 15.122 18.3294 9.80119 18.3294C8.16679 18.3294 6.64699 17.8506 5.36719 17.0304C5.59339 17.0574 5.82379 17.0706 6.05719 17.0706C7.41259 17.0706 8.65999 16.608 9.64999 15.8322C8.38399 15.8082 7.31599 14.9718 6.94759 13.8228C7.12339 13.8564 7.30459 13.875 7.49119 13.875C7.75519 13.875 8.01079 13.839 8.25379 13.773C6.93019 13.5078 5.93299 12.3378 5.93299 10.9368C5.93299 10.9242 5.93299 10.9122 5.93359 10.9002C6.32359 11.1168 6.76939 11.2476 7.24399 11.262C6.46699 10.7436 5.95639 9.858 5.95639 8.85421C5.95639 8.3244 6.09979 7.8276 6.34819 7.4004C7.77499 9.1506 9.90679 10.302 12.311 10.4226C12.2612 10.2108 12.236 9.99 12.236 9.7632C12.236 8.16601 13.5314 6.87061 15.1292 6.87061C15.9608 6.87061 16.7126 7.22221 17.2406 7.78441C17.8994 7.65481 18.518 7.41361 19.0772 7.08241C18.8612 7.75801 18.4022 8.3244 17.8052 8.6826C18.3902 8.6124 18.9482 8.4576 19.4666 8.2272C19.0796 8.8068 18.5882 9.3162 18.0236 9.7248C18.0296 9.8484 18.032 9.9732 18.032 10.0986Z" fill="#0D0D0D"/>
</svg>
