<svg width="32" height="32" viewBox="0 0 32 32" fill="none" xmlns="http://www.w3.org/2000/svg">
<path fill-rule="evenodd" clip-rule="evenodd" d="M27.3388 4.65022C25.8626 3.1716 24.1062 1.99921 22.1715 1.20098C20.2367 0.402757 18.162 -0.0054355 16.0676 5.46536e-05C7.28163 5.46536e-05 0.137519 7.11293 0.133699 15.8559C0.130164 18.6385 0.863805 21.3727 2.26066 23.7831L0 32L8.44672 29.795C10.7827 31.0611 13.4001 31.7245 16.0599 31.7248H16.0668C24.8482 31.7248 31.9969 24.6111 31.9999 15.8681C32.0065 13.7845 31.598 11.7202 30.7979 9.79472C29.9979 7.86922 28.8222 6.12068 27.3388 4.65022ZM16.0676 29.0469H16.0599C13.6882 29.0472 11.3599 28.4127 9.31921 27.2099L8.8356 26.9241L3.82303 28.2326L5.16155 23.3665L4.84602 22.8677C3.5217 20.7678 2.82066 18.3382 2.82372 15.859C2.82372 8.59253 8.7676 2.68021 16.0729 2.68021C19.5854 2.68223 22.9533 4.07264 25.4358 6.54565C27.9183 9.01865 29.3121 12.3717 29.3107 15.8673C29.3076 23.1346 23.3668 29.0469 16.0676 29.0469ZM23.3316 19.1763C22.9336 18.9779 20.9762 18.0191 20.611 17.8837C20.2459 17.7484 19.9808 17.6861 19.7156 18.0822C19.4505 18.4783 18.6873 19.3747 18.4551 19.6355C18.2228 19.8963 17.9905 19.9336 17.5925 19.7351C17.1945 19.5367 15.9117 19.1185 14.3906 17.7682C13.2072 16.7182 12.408 15.4203 12.175 15.0234C11.942 14.6265 12.1506 14.4151 12.35 14.2152C12.5287 14.0372 12.748 13.7521 12.9467 13.521C13.1453 13.2898 13.2125 13.1241 13.3447 12.8603C13.4769 12.5964 13.4112 12.3645 13.3118 12.1661C13.2125 11.9676 12.4164 10.0174 12.0841 9.2236C11.7609 8.45111 11.4332 8.55603 11.1887 8.54387C10.9595 8.53246 10.6906 8.52942 10.4247 8.52942C10.2229 8.53486 10.0243 8.58177 9.84159 8.66721C9.65884 8.75265 9.49582 8.87478 9.36276 9.02591C8.99833 9.42204 7.96999 10.3808 7.96999 12.3311C7.96999 14.2813 9.39637 16.1654 9.59501 16.43C9.79365 16.6946 12.4027 20.6962 16.3946 22.4123C17.1358 22.7307 17.8935 23.0099 18.6644 23.2486C19.6186 23.5528 20.4865 23.5071 21.1718 23.4052C21.9358 23.292 23.528 22.4472 23.8596 21.5219C24.1911 20.5966 24.1911 19.8028 24.0888 19.6371C23.9864 19.4713 23.7297 19.3747 23.3316 19.1763Z" fill="#0D0D0D"/>
</svg>
